<svg xmlns="http://www.w3.org/2000/svg" width="23.941" height="23.315" viewBox="0 0 23.941 23.315">
  <g id="Group_4403" data-name="Group 4403" transform="translate(1 1)">
    <path id="Rectangle_2490" data-name="Rectangle 2490" d="M0,0H21.941a0,0,0,0,1,0,0V11.694a4,4,0,0,1-4,4H4a4,4,0,0,1-4-4V0A0,0,0,0,1,0,0Z" transform="translate(0 5.621)" fill="none" stroke="#7e8b9f" stroke-miterlimit="10" stroke-width="2"/>
    <path id="Path_4843" data-name="Path 4843" d="M184.169,28.691V21.918a2.375,2.375,0,0,1,2.481-2.252h7.512a2.374,2.374,0,0,1,2.481,2.252v6.774" transform="translate(-179.435 -19.666)" fill="none" stroke="#7e8b9f" stroke-linecap="round" stroke-miterlimit="10" stroke-width="2"/>
  </g>
</svg>
