<svg xmlns="http://www.w3.org/2000/svg" width="31.547" height="21.515" viewBox="0 0 31.547 21.515">
  <g id="Group_4453" data-name="Group 4453" transform="translate(-712.103 -2024)">
    <g id="Group_4431" data-name="Group 4431" transform="translate(713.103 2026.5)">
      <path id="Path_4844" data-name="Path 4844" d="M61.47-61.366a9.652,9.652,0,0,1,7.01,9.283" transform="translate(-49.185 70.098)" fill="none" stroke="#7e8b9f" stroke-linecap="round" stroke-miterlimit="10" stroke-width="2"/>
      <path id="Path_4845" data-name="Path 4845" d="M8.045-52.133a9.652,9.652,0,0,1,7.064-9.3" transform="translate(-8.045 70.148)" fill="none" stroke="#7e8b9f" stroke-linecap="round" stroke-miterlimit="10" stroke-width="2"/>
      <circle id="Ellipse_1298" data-name="Ellipse 1298" cx="4.727" cy="4.727" r="4.727" transform="translate(4.92 0)" fill="none" stroke="#7e8b9f" stroke-miterlimit="10" stroke-width="2"/>
    </g>
    <path id="Path_4844-2" data-name="Path 4844" d="M61.47-61.366a7.094,7.094,0,0,1,5.152,6.823" transform="translate(676.028 2092.783)" fill="none" stroke="#7e8b9f" stroke-linecap="round" stroke-miterlimit="10" stroke-width="2"/>
    <path id="Path_4845-2" data-name="Path 4845" d="M8.973-58.155a6.925,6.925,0,0,1,4.264-3.276" transform="translate(720.424 2092.838)" fill="none" stroke="#7e8b9f" stroke-linecap="round" stroke-miterlimit="10" stroke-width="2"/>
    <circle id="Ellipse_1298-2" data-name="Ellipse 1298" cx="3.474" cy="3.474" r="3.474" transform="translate(732.085 2025)" fill="none" stroke="#7e8b9f" stroke-miterlimit="10" stroke-width="2"/>
  </g>
</svg>
