<svg xmlns="http://www.w3.org/2000/svg" width="29.045" height="19.583" viewBox="0 0 29.045 19.583">
  <g id="Group_4400" data-name="Group 4400" transform="translate(1 1)">
    <g id="Group_4384" data-name="Group 4384" transform="translate(0 2.169)">
      <path id="Path_4837" data-name="Path 4837" d="M335.253,361.76h4.575a4.953,4.953,0,0,1,3.8,1.772l7.312,8.724a4.953,4.953,0,0,0,3.8,1.772h6.233" transform="translate(-335.253 -361.76)" fill="none" stroke="#7e8b9f" stroke-linecap="round" stroke-miterlimit="10" stroke-width="2"/>
      <path id="Path_4838" data-name="Path 4838" d="M402.689,387.866l3.165,3.165-3.165,3.165" transform="translate(-379.224 -378.782)" fill="none" stroke="#7e8b9f" stroke-linecap="round" stroke-miterlimit="10" stroke-width="2"/>
    </g>
    <g id="Group_4385" data-name="Group 4385" transform="translate(0 0)">
      <path id="Path_4839" data-name="Path 4839" d="M377.361,367.571l1.032-1.231a4.954,4.954,0,0,1,3.8-1.772h6.233" transform="translate(-362.709 -361.422)" fill="none" stroke="#7e8b9f" stroke-linecap="round" stroke-miterlimit="10" stroke-width="2"/>
      <path id="Path_4840" data-name="Path 4840" d="M335.253,392.28h4.575a4.953,4.953,0,0,0,3.8-1.772l1.889-2.254" transform="translate(-335.253 -376.866)" fill="none" stroke="#7e8b9f" stroke-linecap="round" stroke-miterlimit="10" stroke-width="2"/>
      <path id="Path_4841" data-name="Path 4841" d="M402.689,361.856l3.165-3.165-3.165-3.165" transform="translate(-379.224 -355.526)" fill="none" stroke="#7e8b9f" stroke-linecap="round" stroke-miterlimit="10" stroke-width="2"/>
    </g>
  </g>
</svg>
